# Blender v2.82 (sub 7) OBJ File: 'StingRay.blend'
# www.blender.org
mtllib StingRay.mtl
o StingRay_StingRayMesh
v -0.088522 0.007463 0.314000
v -0.181807 -0.005821 -0.221537
v -0.301179 -0.038392 0.182471
v -0.349587 -0.051344 -0.083507
v -0.456069 -0.059923 0.086122
v -0.450195 -0.059454 -0.037238
v -0.553944 -0.067645 0.020625
v -0.554098 -0.067657 -0.016649
v -0.067841 0.001032 0.328876
v -0.064966 -0.000995 0.358805
v -0.055265 0.004543 0.403369
v -0.038088 0.009189 0.444552
v -0.017504 0.016612 0.495075
v -0.010516 0.017824 0.504315
v -0.028632 0.015981 -0.385430
v -0.042900 -0.002740 0.313024
v -0.033944 -0.008320 0.329238
v -0.042095 -0.021425 0.360524
v -0.031271 -0.015291 0.403832
v -0.020917 -0.006525 0.442918
v -0.008225 0.008984 0.496910
v -0.004640 0.019539 0.508917
v -0.008801 0.015305 -0.464190
v -0.003446 0.008451 -0.781416
v -0.002282 0.002103 -1.093221
v -0.175374 0.000023 -0.205491
v -0.079107 0.022462 0.293358
v -0.292130 -0.031062 0.162481
v -0.343559 -0.043855 -0.067610
v -0.446963 -0.052537 0.066187
v -0.443949 -0.052064 -0.021345
v -0.538474 -0.054634 0.015647
v -0.538568 -0.055546 -0.007718
v -0.067179 0.016190 0.326753
v -0.073525 0.019656 0.356746
v -0.060259 0.019603 0.401938
v -0.040541 0.025954 0.441401
v -0.017602 0.026470 0.492434
v -0.010594 0.025564 0.503394
v -0.017090 0.023007 -0.376808
v -0.043762 0.036369 0.301649
v -0.033241 0.039031 0.325444
v -0.040925 0.044414 0.355181
v -0.029696 0.045762 0.398773
v -0.019419 0.033103 0.444877
v -0.008857 0.031778 0.495376
v -0.004640 0.024922 0.508389
v -0.006298 0.020692 -0.465261
v -0.003446 0.013858 -0.781526
v -0.002282 0.007511 -1.093331
v -0.046113 0.016568 -0.420033
v -0.035412 0.022005 -0.417676
v -0.020652 0.016105 -0.432545
v -0.014874 0.021532 -0.430154
v -0.171310 -0.032665 0.025315
v -0.324529 -0.056162 0.049194
v -0.452948 -0.061943 0.024321
v -0.554021 -0.067651 0.001951
v -0.059635 -0.019939 -0.006599
v -0.325522 -0.044213 0.049194
v -0.170988 -0.016546 0.039557
v -0.453552 -0.054294 0.024321
v -0.538835 -0.055262 0.004342
v -0.067428 0.004589 -0.024285
v 0.088512 0.007395 0.314000
v 0.000000 -0.006501 0.311427
v 0.181700 -0.006513 -0.221537
v -0.000000 0.015315 -0.369357
v 0.300812 -0.040701 0.182471
v 0.349135 -0.054120 -0.083508
v 0.455681 -0.061833 0.086122
v 0.449804 -0.061401 -0.037238
v 0.553603 -0.068932 0.020624
v 0.553757 -0.068943 -0.016650
v 0.067837 0.001020 0.328876
v 0.000000 -0.016547 0.328191
v 0.064966 -0.000995 0.358805
v 0.000000 -0.027283 0.359801
v 0.055266 0.004543 0.403369
v 0.000000 -0.021214 0.403061
v 0.038088 0.009189 0.444552
v 0.000000 -0.012448 0.442147
v 0.017504 0.016612 0.495075
v 0.000000 0.009613 0.497564
v 0.010516 0.017824 0.504315
v 0.000000 0.019648 0.510032
v 0.028631 0.015981 -0.385430
v 0.042897 -0.002748 0.313024
v 0.033944 -0.008320 0.329238
v 0.042095 -0.021425 0.360524
v 0.031271 -0.015291 0.403832
v 0.020917 -0.006525 0.442919
v 0.008225 0.008984 0.496910
v 0.004640 0.019539 0.508917
v -0.000000 0.013569 -0.468753
v 0.008801 0.015305 -0.464190
v -0.000000 0.008357 -0.786014
v 0.003446 0.008451 -0.781416
v -0.000000 0.002010 -1.097819
v 0.002282 0.002103 -1.093221
v -0.000000 -0.004109 -1.342155
v 0.175278 -0.000725 -0.205491
v 0.000000 0.039889 0.295987
v 0.079111 0.022391 0.293358
v -0.000000 0.025380 -0.368940
v 0.291755 -0.033385 0.162481
v 0.343111 -0.046582 -0.067610
v 0.446529 -0.054504 0.066187
v 0.443512 -0.054051 -0.021345
v 0.538051 -0.056019 0.015647
v 0.538150 -0.056931 -0.007718
v 0.067178 0.016179 0.326753
v 0.000000 0.055988 0.322591
v 0.073525 0.019656 0.356746
v 0.000000 0.060572 0.351228
v 0.060259 0.019603 0.401938
v 0.000000 0.060726 0.394894
v 0.040541 0.025954 0.441401
v 0.000000 0.041965 0.442658
v 0.017602 0.026470 0.492434
v 0.000000 0.031647 0.494038
v 0.010595 0.025564 0.503394
v 0.000000 0.025031 0.509505
v 0.017090 0.023007 -0.376808
v 0.043763 0.036369 0.301649
v 0.033241 0.039031 0.325444
v 0.040925 0.044414 0.355181
v 0.029696 0.045762 0.398773
v 0.019419 0.033103 0.444877
v 0.008857 0.031778 0.495376
v 0.004640 0.024922 0.508389
v -0.000000 0.020612 -0.468907
v 0.006297 0.020692 -0.465261
v -0.000000 0.013765 -0.786124
v 0.003446 0.013858 -0.781526
v -0.000000 0.007417 -1.097929
v 0.002282 0.007511 -1.093331
v -0.000000 0.001297 -1.342291
v -0.000000 0.016175 -0.390097
v 0.046113 0.016568 -0.420033
v -0.000000 0.024326 -0.389759
v 0.035412 0.022005 -0.417676
v -0.000000 0.016112 -0.427242
v -0.000000 0.023936 -0.427413
v 0.020652 0.016105 -0.432545
v 0.014874 0.021532 -0.430154
v -0.000000 -0.010330 -0.030374
v 0.171018 -0.034159 0.025315
v 0.324114 -0.058913 0.049194
v 0.452573 -0.063872 0.024321
v 0.553680 -0.068937 0.001951
v 0.059459 -0.020459 -0.006599
v 0.325041 -0.046960 0.049194
v 0.170837 -0.018037 0.039557
v 0.000004 0.026618 -0.028875
v 0.453128 -0.056219 0.024321
v 0.538416 -0.056644 0.004342
v 0.067454 0.004054 -0.024285
vt 0.500000 0.499022
vt 0.500000 1.000000
vt 1.000000 1.000000
vt 1.000000 0.499022
vt 1.000000 0.499022
vt 1.000000 0.000000
vt 1.000000 0.000000
vt 1.000000 0.498974
vt 1.000000 0.000000
vt 1.000000 0.499085
vt 1.000000 0.000000
vt 0.500000 1.000000
vt 1.000000 1.000000
vt 0.500000 1.000000
vt 1.000000 1.000000
vt 0.500000 1.000000
vt 1.000000 1.000000
vt 0.500000 1.000000
vt 1.000000 1.000000
vt 0.500000 1.000000
vt 1.000000 1.000000
vt 0.500000 1.000000
vt 1.000000 1.000000
vt 0.000000 1.000000
vt 0.000000 1.000000
vt 0.000000 1.000000
vt 0.000000 1.000000
vt 0.000000 1.000000
vt 0.000000 1.000000
vt 0.000000 1.000000
vt 0.000000 0.499022
vt 0.500000 0.000000
vt 0.500000 0.000000
vt 0.000000 0.000000
vt 0.000000 0.000000
vt 0.500000 0.000000
vt 0.000000 0.000000
vt 0.500000 0.000000
vt 0.000000 0.000000
vt 0.500000 0.000000
vt 1.000000 0.499022
vt 1.000000 0.000000
vt 1.000000 0.000000
vt 1.000000 0.499022
vt 0.500000 0.499022
vt 1.000000 1.000000
vt 0.500000 1.000000
vt 1.000000 0.000000
vt 1.000000 0.498974
vt 1.000000 0.000000
vt 1.000000 0.499085
vt 1.000000 1.000000
vt 0.500000 1.000000
vt 1.000000 1.000000
vt 0.500000 1.000000
vt 1.000000 1.000000
vt 0.500000 1.000000
vt 1.000000 1.000000
vt 0.500000 1.000000
vt 1.000000 1.000000
vt 0.500000 1.000000
vt 1.000000 1.000000
vt 0.500000 1.000000
vt 0.000000 1.000000
vt 0.000000 1.000000
vt 0.000000 1.000000
vt 0.000000 1.000000
vt 0.000000 1.000000
vt 0.000000 1.000000
vt 0.000000 1.000000
vt 0.000000 0.499022
vt 0.500000 0.000000
vt 0.000000 0.000000
vt 0.000000 0.000000
vt 0.500000 0.000000
vt 0.000000 0.000000
vt 0.500000 0.000000
vt 0.000000 0.000000
vt 0.500000 0.000000
vt 0.500000 0.000000
vt 1.000000 1.000000
vt 1.000000 1.000000
vt 1.000000 1.000000
vt 1.000000 1.000000
vt 1.000000 1.000000
vt 1.000000 1.000000
vt 0.500000 0.000000
vt 0.500000 0.000000
vt 0.500000 0.000000
vt 0.500000 0.000000
vt 0.000000 0.000000
vt 0.000000 0.000000
vt 0.000000 0.000000
vt 0.000000 0.000000
vt 0.500000 0.499022
vt 1.000000 0.499022
vt 1.000000 1.000000
vt 0.500000 1.000000
vt 1.000000 0.000000
vt 1.000000 0.000000
vt 1.000000 0.499022
vt 1.000000 0.000000
vt 1.000000 0.498974
vt 1.000000 0.000000
vt 1.000000 0.499085
vt 1.000000 1.000000
vt 0.500000 1.000000
vt 1.000000 1.000000
vt 0.500000 1.000000
vt 1.000000 1.000000
vt 0.500000 1.000000
vt 1.000000 1.000000
vt 0.500000 1.000000
vt 1.000000 1.000000
vt 0.500000 1.000000
vt 1.000000 1.000000
vt 0.500000 1.000000
vt 0.500000 0.000000
vt 0.500000 0.000000
vt 0.500000 0.000000
vt 0.500000 0.000000
vt 1.000000 0.499022
vt 1.000000 0.499022
vt 1.000000 0.000000
vt 1.000000 0.000000
vt 0.500000 0.499022
vt 0.500000 1.000000
vt 1.000000 1.000000
vt 1.000000 0.498974
vt 1.000000 0.000000
vt 1.000000 0.499085
vt 1.000000 0.000000
vt 0.500000 1.000000
vt 1.000000 1.000000
vt 0.500000 1.000000
vt 1.000000 1.000000
vt 0.500000 1.000000
vt 1.000000 1.000000
vt 0.500000 1.000000
vt 1.000000 1.000000
vt 0.500000 1.000000
vt 1.000000 1.000000
vt 0.500000 1.000000
vt 1.000000 1.000000
vt 0.500000 0.000000
vt 0.500000 0.000000
vt 0.500000 0.000000
vt 0.500000 0.000000
vt 1.000000 1.000000
vt 1.000000 1.000000
vt 1.000000 1.000000
vt 1.000000 1.000000
vt 1.000000 1.000000
vt 1.000000 1.000000
vt 0.500000 0.000000
vt 0.500000 0.000000
vt 0.500000 0.000000
vt 0.500000 0.000000
vn 0.0344 -0.9955 0.0882
vn 0.1622 -0.9820 -0.0971
vn 0.0564 -0.9974 -0.0440
vn 0.0679 -0.9973 -0.0286
vn -0.2374 -0.9606 -0.1448
vn -0.4425 -0.8609 -0.2510
vn -0.6382 -0.7295 0.2460
vn -0.6116 -0.7191 0.3299
vn -0.6210 -0.7006 0.3514
vn -0.4987 -0.6289 0.5965
vn -0.0453 -0.7612 0.6470
vn -0.1669 -0.9264 0.3375
vn -0.2081 -0.9481 0.2402
vn -0.1535 -0.9756 0.1567
vn -0.1776 -0.9124 -0.3688
vn -0.1551 -0.9084 -0.3883
vn 0.0643 -0.9975 0.0301
vn -0.0595 -0.9976 0.0359
vn -0.1348 -0.9907 0.0177
vn 0.0000 -0.9998 0.0204
vn 0.0095 -0.9996 0.0250
vn -0.1909 0.9799 0.0577
vn -0.2681 0.9613 -0.0639
vn -0.0779 0.9968 0.0199
vn -0.0257 0.9992 0.0293
vn -0.4737 0.8475 0.2394
vn -0.5705 0.7824 -0.2499
vn -0.6126 0.7745 0.1577
vn -0.5263 0.8144 0.2445
vn -0.4068 0.9025 0.1414
vn -0.4865 0.7385 0.4669
vn 0.0085 0.9044 0.4265
vn -0.2764 0.9512 0.1374
vn -0.3783 0.8645 0.3308
vn -0.3997 0.9160 0.0357
vn -0.4147 0.8864 -0.2059
vn -0.2756 0.9183 -0.2843
vn -0.2287 0.9717 -0.0589
vn -0.1117 0.9915 -0.0664
vn -0.0005 0.9998 -0.0216
vn -0.0000 0.9998 -0.0204
vn -0.0095 0.9996 -0.0250
vn -1.0000 -0.0002 -0.0092
vn -0.2689 0.9370 0.2231
vn -0.8917 -0.1470 0.4280
vn -0.6384 0.7697 -0.0069
vn -0.9744 0.2241 -0.0175
vn -0.1409 0.8348 -0.5322
vn -0.6324 0.0812 0.7704
vn -0.2971 0.8613 0.4121
vn -0.9191 -0.0023 0.3941
vn -0.3592 0.9088 -0.2124
vn -1.0000 -0.0001 -0.0037
vn -0.5757 0.6064 0.5485
vn -0.2347 0.0948 0.9674
vn -0.8181 0.1062 0.5652
vn -0.9740 -0.2208 -0.0511
vn -0.4094 0.8877 -0.2108
vn -0.3891 0.8704 0.3015
vn -0.9124 -0.3215 0.2531
vn -0.5676 0.7795 0.2649
vn -0.2299 0.9125 -0.3383
vn -0.3117 0.7357 -0.6014
vn -0.0833 0.9965 -0.0085
vn 0.0024 -0.9996 -0.0269
vn -0.7548 0.6080 -0.2459
vn -0.0666 0.9968 -0.0444
vn -0.0090 -0.9999 0.0060
vn -0.6210 0.7837 -0.0113
vn -0.2775 0.9607 0.0037
vn 0.0006 0.9990 -0.0449
vn -0.0787 0.9941 -0.0752
vn -0.1234 0.9912 0.0485
vn -0.1919 0.9787 -0.0736
vn 0.0935 -0.9923 -0.0811
vn 0.0554 -0.9981 0.0272
vn 0.0551 -0.9939 0.0951
vn 0.1583 -0.9828 0.0950
vn 0.0572 -0.9936 -0.0978
vn -0.0414 -0.9951 0.0902
vn -0.1709 -0.9802 -0.0998
vn -0.0493 -0.9979 -0.0430
vn -0.0616 -0.9977 -0.0286
vn 0.2366 -0.9609 -0.1438
vn 0.4424 -0.8610 -0.2508
vn 0.6382 -0.7295 0.2460
vn 0.6116 -0.7191 0.3299
vn 0.6210 -0.7006 0.3514
vn 0.4987 -0.6289 0.5965
vn 0.0453 -0.7612 0.6470
vn 0.1669 -0.9264 0.3375
vn 0.2081 -0.9481 0.2402
vn 0.1535 -0.9756 0.1567
vn 0.1776 -0.9124 -0.3688
vn 0.1550 -0.9085 -0.3882
vn -0.0697 -0.9971 0.0307
vn 0.0595 -0.9976 0.0359
vn 0.1348 -0.9907 0.0177
vn -0.0095 -0.9996 0.0250
vn 0.1995 0.9780 0.0602
vn 0.2756 0.9591 -0.0655
vn 0.0712 0.9973 0.0193
vn 0.0194 0.9994 0.0293
vn 0.4744 0.8473 0.2389
vn 0.5705 0.7823 -0.2501
vn 0.6126 0.7745 0.1577
vn 0.5263 0.8144 0.2445
vn 0.4068 0.9025 0.1414
vn 0.4865 0.7385 0.4669
vn -0.0085 0.9044 0.4265
vn 0.2764 0.9512 0.1374
vn 0.3783 0.8645 0.3308
vn 0.3997 0.9160 0.0357
vn 0.4147 0.8864 -0.2059
vn 0.2756 0.9183 -0.2843
vn 0.2331 0.9706 -0.0595
vn 0.1117 0.9915 -0.0664
vn 0.0005 0.9998 -0.0216
vn 0.0095 0.9996 -0.0250
vn 1.0000 -0.0002 -0.0092
vn 0.2664 0.9378 0.2225
vn 0.8917 -0.1470 0.4280
vn 0.6334 0.7738 -0.0069
vn 0.9744 0.2241 -0.0175
vn 0.1356 0.8357 -0.5322
vn 0.6324 0.0812 0.7704
vn 0.2917 0.8632 0.4121
vn 0.9191 -0.0023 0.3941
vn 0.3606 0.9089 -0.2095
vn 1.0000 -0.0001 -0.0037
vn 0.5769 0.6060 0.5477
vn 0.2347 0.0948 0.9674
vn 0.8181 0.1061 0.5652
vn 0.9740 -0.2208 -0.0511
vn 0.4169 0.8851 -0.2068
vn 0.3959 0.8688 0.2972
vn 0.9124 -0.3215 0.2531
vn 0.5676 0.7795 0.2649
vn 0.2239 0.9131 -0.3409
vn 0.3117 0.7357 -0.6014
vn 0.0833 0.9965 -0.0085
vn -0.0024 -0.9996 -0.0269
vn 0.7548 0.6080 -0.2459
vn 0.0666 0.9968 -0.0444
vn 0.0090 -0.9999 0.0060
vn 0.6160 0.7877 -0.0113
vn 0.2831 0.9591 0.0039
vn -0.0069 0.9990 -0.0449
vn 0.0728 0.9942 -0.0792
vn 0.1283 0.9905 0.0502
vn 0.2006 0.9768 -0.0754
vn -0.0994 -0.9917 -0.0815
vn -0.0490 -0.9984 0.0272
vn -0.0496 -0.9939 0.0980
vn -0.1670 -0.9812 0.0971
vn -0.0620 -0.9931 -0.0997
usemtl Material
s off
f 59/1/1 16/2/1 1/3/1 55/4/1
f 55/4/2 56/5/2 4/6/2 2/7/2
f 56/5/3 57/8/3 6/9/3 4/6/3
f 57/8/4 58/10/4 8/11/4 6/9/4
f 16/2/5 17/12/5 9/13/5 1/3/5
f 17/12/6 18/14/6 10/15/6 9/13/6
f 18/14/7 19/16/7 11/17/7 10/15/7
f 19/16/8 20/18/8 12/19/8 11/17/8
f 20/18/9 21/20/9 13/21/9 12/19/9
f 21/20/10 22/22/10 14/23/10 13/21/10
f 84/24/11 86/25/11 22/22/11 21/20/11
f 82/26/12 84/24/12 21/20/12 20/18/12
f 80/27/13 82/26/13 20/18/13 19/16/13
f 78/28/14 80/27/14 19/16/14 18/14/14
f 76/29/15 78/28/15 18/14/15 17/12/15
f 66/30/16 76/29/16 17/12/16 16/2/16
f 147/31/17 66/30/17 16/2/17 59/1/17
f 53/32/18 23/33/18 95/34/18 143/35/18
f 23/33/19 24/36/19 97/37/19 95/34/19
f 24/36/20 25/38/20 99/39/20 97/37/20
f 25/38/21 101/40/21 99/39/21
f 61/41/22 26/42/22 29/43/22 60/44/22
f 64/45/23 61/41/23 27/46/23 41/47/23
f 60/44/24 29/43/24 31/48/24 62/49/24
f 62/49/25 31/48/25 33/50/25 63/51/25
f 41/47/26 27/46/26 34/52/26 42/53/26
f 42/53/27 34/52/27 35/54/27 43/55/27
f 43/55/28 35/54/28 36/56/28 44/57/28
f 44/57/29 36/56/29 37/58/29 45/59/29
f 45/59/30 37/58/30 38/60/30 46/61/30
f 46/61/31 38/60/31 39/62/31 47/63/31
f 121/64/32 46/61/32 47/63/32 123/65/32
f 119/66/33 45/59/33 46/61/33 121/64/33
f 117/67/34 44/57/34 45/59/34 119/66/34
f 115/68/35 43/55/35 44/57/35 117/67/35
f 113/69/36 42/53/36 43/55/36 115/68/36
f 103/70/37 41/47/37 42/53/37 113/69/37
f 155/71/38 64/45/38 41/47/38 103/70/38
f 54/72/39 144/73/39 132/74/39 48/75/39
f 48/75/40 132/74/40 134/76/40 49/77/40
f 49/77/41 134/76/41 136/78/41 50/79/41
f 50/79/42 136/78/42 138/80/42
f 101/40/43 25/38/43 50/79/43 138/80/43
f 5/81/44 3/82/44 28/83/44 30/84/44
f 11/17/45 12/19/45 37/58/45 36/56/45
f 58/10/46 7/85/46 32/86/46 63/51/46
f 24/36/47 23/33/47 48/75/47 49/77/47
f 6/9/48 8/11/48 33/50/48 31/48/48
f 14/23/49 22/22/49 47/63/49 39/62/49
f 7/85/50 5/81/50 30/84/50 32/86/50
f 12/19/51 13/21/51 38/60/51 37/58/51
f 15/87/52 2/7/52 26/42/52 40/88/52
f 25/38/53 24/36/53 49/77/53 50/79/53
f 1/3/54 9/13/54 34/52/54 27/46/54
f 22/22/55 86/25/55 123/65/55 47/63/55
f 13/21/56 14/23/56 39/62/56 38/60/56
f 9/13/57 10/15/57 35/54/57 34/52/57
f 2/7/58 4/6/58 29/43/58 26/42/58
f 3/82/59 1/3/59 27/46/59 28/83/59
f 10/15/60 11/17/60 36/56/60 35/54/60
f 51/89/61 15/87/61 40/88/61 52/90/61
f 4/6/62 6/9/62 31/48/62 29/43/62
f 53/32/63 51/89/63 52/90/63 54/72/63
f 40/88/64 105/91/64 141/92/64 52/90/64
f 15/87/65 51/89/65 139/93/65 68/94/65
f 23/33/66 53/32/66 54/72/66 48/75/66
f 52/90/67 141/92/67 144/73/67 54/72/67
f 51/89/68 53/32/68 143/35/68 139/93/68
f 8/11/69 58/10/69 63/51/69 33/50/69
f 105/91/70 40/88/70 64/45/70 155/71/70
f 30/84/71 62/49/71 63/51/71 32/86/71
f 28/83/72 60/44/72 62/49/72 30/84/72
f 40/88/73 26/42/73 61/41/73 64/45/73
f 27/46/74 61/41/74 60/44/74 28/83/74
f 68/94/75 147/31/75 59/1/75 15/87/75
f 5/81/76 7/85/76 58/10/76 57/8/76
f 3/82/77 5/81/77 57/8/77 56/5/77
f 1/3/78 3/82/78 56/5/78 55/4/78
f 15/87/79 59/1/79 55/4/79 2/7/79
f 152/95/80 148/96/80 65/97/80 88/98/80
f 148/96/81 67/99/81 70/100/81 149/101/81
f 149/101/82 70/100/82 72/102/82 150/103/82
f 150/103/83 72/102/83 74/104/83 151/105/83
f 88/98/84 65/97/84 75/106/84 89/107/84
f 89/107/85 75/106/85 77/108/85 90/109/85
f 90/109/86 77/108/86 79/110/86 91/111/86
f 91/111/87 79/110/87 81/112/87 92/113/87
f 92/113/88 81/112/88 83/114/88 93/115/88
f 93/115/89 83/114/89 85/116/89 94/117/89
f 84/24/90 93/115/90 94/117/90 86/25/90
f 82/26/91 92/113/91 93/115/91 84/24/91
f 80/27/92 91/111/92 92/113/92 82/26/92
f 78/28/93 90/109/93 91/111/93 80/27/93
f 76/29/94 89/107/94 90/109/94 78/28/94
f 66/30/95 88/98/95 89/107/95 76/29/95
f 147/31/96 152/95/96 88/98/96 66/30/96
f 145/118/97 143/35/97 95/34/97 96/119/97
f 96/119/98 95/34/98 97/37/98 98/120/98
f 98/120/20 97/37/20 99/39/20 100/121/20
f 100/121/99 99/39/99 101/40/99
f 154/122/100 153/123/100 107/124/100 102/125/100
f 158/126/101 125/127/101 104/128/101 154/122/101
f 153/123/102 156/129/102 109/130/102 107/124/102
f 156/129/103 157/131/103 111/132/103 109/130/103
f 125/127/104 126/133/104 112/134/104 104/128/104
f 126/133/105 127/135/105 114/136/105 112/134/105
f 127/135/106 128/137/106 116/138/106 114/136/106
f 128/137/107 129/139/107 118/140/107 116/138/107
f 129/139/108 130/141/108 120/142/108 118/140/108
f 130/141/109 131/143/109 122/144/109 120/142/109
f 121/64/110 123/65/110 131/143/110 130/141/110
f 119/66/111 121/64/111 130/141/111 129/139/111
f 117/67/112 119/66/112 129/139/112 128/137/112
f 115/68/113 117/67/113 128/137/113 127/135/113
f 113/69/114 115/68/114 127/135/114 126/133/114
f 103/70/115 113/69/115 126/133/115 125/127/115
f 155/71/116 103/70/116 125/127/116 158/126/116
f 146/145/117 133/146/117 132/74/117 144/73/117
f 133/146/118 135/147/118 134/76/118 132/74/118
f 135/147/41 137/148/41 136/78/41 134/76/41
f 137/148/119 138/80/119 136/78/119
f 101/40/120 138/80/120 137/148/120 100/121/120
f 71/149/121 108/150/121 106/151/121 69/152/121
f 79/110/122 116/138/122 118/140/122 81/112/122
f 151/105/123 157/131/123 110/153/123 73/154/123
f 98/120/124 135/147/124 133/146/124 96/119/124
f 72/102/125 109/130/125 111/132/125 74/104/125
f 85/116/126 122/144/126 131/143/126 94/117/126
f 73/154/127 110/153/127 108/150/127 71/149/127
f 81/112/128 118/140/128 120/142/128 83/114/128
f 87/155/129 124/156/129 102/125/129 67/99/129
f 100/121/130 137/148/130 135/147/130 98/120/130
f 65/97/131 104/128/131 112/134/131 75/106/131
f 94/117/132 131/143/132 123/65/132 86/25/132
f 83/114/133 120/142/133 122/144/133 85/116/133
f 75/106/134 112/134/134 114/136/134 77/108/134
f 67/99/135 102/125/135 107/124/135 70/100/135
f 69/152/136 106/151/136 104/128/136 65/97/136
f 77/108/137 114/136/137 116/138/137 79/110/137
f 140/157/138 142/158/138 124/156/138 87/155/138
f 70/100/139 107/124/139 109/130/139 72/102/139
f 145/118/140 146/145/140 142/158/140 140/157/140
f 124/156/141 142/158/141 141/92/141 105/91/141
f 87/155/142 68/94/142 139/93/142 140/157/142
f 96/119/143 133/146/143 146/145/143 145/118/143
f 142/158/144 146/145/144 144/73/144 141/92/144
f 140/157/145 139/93/145 143/35/145 145/118/145
f 74/104/146 111/132/146 157/131/146 151/105/146
f 105/91/147 155/71/147 158/126/147 124/156/147
f 108/150/148 110/153/148 157/131/148 156/129/148
f 106/151/149 108/150/149 156/129/149 153/123/149
f 124/156/150 158/126/150 154/122/150 102/125/150
f 104/128/151 106/151/151 153/123/151 154/122/151
f 68/94/152 87/155/152 152/95/152 147/31/152
f 71/149/153 150/103/153 151/105/153 73/154/153
f 69/152/154 149/101/154 150/103/154 71/149/154
f 65/97/155 148/96/155 149/101/155 69/152/155
f 87/155/156 67/99/156 148/96/156 152/95/156
