# This file uses centimeters as units for non-parametric coordinates.

mtllib cola.mtl
g default
v -0.081362 0.289940 -0.548504
v -0.092547 0.289940 -0.546367
v -0.098797 0.415460 -0.585620
v -0.087612 0.415460 -0.587757
v -0.081419 -0.313720 -0.547515
v -0.073240 -0.426759 -0.506132
v -0.087095 -0.426759 -0.503485
v -0.092188 -0.313720 -0.545458
v 0.033046 -0.209929 0.142629
v 0.029187 -0.117652 0.086281
v 0.013394 -0.209929 0.146383
v -0.000390 -0.117652 0.091931
v -0.010056 -0.037185 0.023193
v 0.005706 0.214676 -0.029077
v -0.013946 0.214676 -0.025323
v 0.008001 0.094937 -0.030720
v 0.006448 -0.235942 -0.024414
v 0.004135 -0.115248 -0.038940
v -0.013204 -0.235942 -0.020660
v -0.015517 -0.115248 -0.035185
v -0.024130 -0.056991 -0.089284
v -0.015726 0.256868 -0.163676
v -0.035378 0.256868 -0.159922
v -0.013878 0.118513 -0.152069
v -0.053152 -0.392055 -0.398728
v -0.050758 -0.276482 -0.364935
v -0.072804 -0.392055 -0.394974
v -0.064613 -0.276482 -0.362288
v -0.042513 -0.073582 -0.228481
v -0.063582 0.382744 -0.435492
v -0.074352 0.382744 -0.433434
v -0.059270 0.251717 -0.408412
v -0.081005 -0.037891 -0.474549
v -0.070028 -0.037891 -0.476646
v -0.016613 0.094937 -0.026018
v 0.017039 -0.037185 0.018017
v -0.033530 0.118513 -0.148315
v -0.004479 -0.056991 -0.093038
v -0.070040 0.251717 -0.406354
v -0.030201 -0.073582 -0.230833
vt 0.149400 0.538400
vt 0.149400 0.538400
vt 0.145500 0.567600
vt 0.145500 0.567600
vt 0.146600 0.410000
vt 0.156800 0.384400
vt 0.155900 0.383500
vt 0.146500 0.410300
vt 0.294400 0.447700
vt 0.307600 0.429900
vt 0.269600 0.431200
vt 0.266900 0.449200
vt 0.307200 0.430200
vt 0.269500 0.431300
vt 0.294300 0.447900
vt 0.266900 0.449200
vt 0.279400 0.467400
vt 0.254700 0.462700
vt 0.270700 0.526200
vt 0.269400 0.526300
vt 0.240300 0.535700
vt 0.239600 0.535900
vt 0.268800 0.498500
vt 0.241800 0.503700
vt 0.179600 0.392200
vt 0.186900 0.419100
vt 0.180700 0.392600
vt 0.186900 0.419100
vt 0.218400 0.463000
vt 0.179200 0.559900
vt 0.179600 0.559800
vt 0.180300 0.529400
vt 0.164000 0.471300
vt 0.164000 0.471300
vt 0.241800 0.503700
vt 0.268800 0.498500
vt 0.279400 0.467400
vt 0.254700 0.462700
vt 0.180300 0.529400
vt 0.218400 0.463000
vn 0.631061 -0.160279 -0.758994
vn -0.849601 -0.155587 -0.503955
vn -0.716232 0.463533 -0.521679
vn 0.492215 0.474818 -0.729571
vn 0.529072 -0.031084 -0.848008
vn 0.591424 -0.649936 -0.477285
vn -0.717637 -0.643531 -0.266203
vn -0.786066 -0.028221 -0.617498
vn 0.940646 -0.110897 -0.320761
vn 0.629985 -0.623762 -0.462645
vn 0.822509 -0.567742 0.033890
vn 0.983099 -0.009019 -0.182850
vn 0.629985 -0.623762 -0.462645
vn -0.753286 -0.611177 -0.242945
vn -0.770482 -0.565807 0.293632
vn 0.822509 -0.567742 0.033890
vn -0.753286 -0.611177 -0.242945
vn -0.992019 -0.124154 -0.022022
vn -0.990521 -0.014052 0.136639
vn -0.770482 -0.565807 0.293632
vn -0.998126 -0.056317 0.023937
vn -0.991234 -0.014050 0.131369
vn -0.990521 -0.014052 0.136639
vn -0.992019 -0.124154 -0.022022
vn -0.747102 0.660315 0.076305
vn 0.732715 0.661604 -0.159402
vn 0.826049 0.555802 0.093415
vn -0.750868 0.561957 0.346991
vn 0.732715 0.661604 -0.159402
vn 0.954160 -0.024785 -0.298270
vn 0.984648 -0.002254 -0.174536
vn 0.826049 0.555802 0.093415
vn 0.983099 -0.009019 -0.182850
vn 0.822509 -0.567742 0.033890
vn 0.819218 -0.567648 0.081593
vn 0.984287 0.019433 -0.175503
vn 0.822509 -0.567742 0.033890
vn -0.770482 -0.565807 0.293632
vn -0.741436 -0.576527 0.343351
vn 0.819218 -0.567648 0.081593
vn -0.770482 -0.565807 0.293632
vn -0.990521 -0.014052 0.136639
vn -0.989219 0.017940 0.145341
vn -0.741436 -0.576527 0.343351
vn -0.990521 -0.014052 0.136639
vn -0.991234 -0.014050 0.131369
vn -0.989838 0.001242 0.142193
vn -0.989219 0.017940 0.145341
vn -0.750868 0.561957 0.346991
vn 0.826049 0.555802 0.093415
vn 0.791604 0.604177 0.091286
vn -0.718299 0.610361 0.333925
vn 0.826049 0.555802 0.093415
vn 0.984648 -0.002254 -0.174536
vn 0.986226 -0.001787 -0.165395
vn 0.791604 0.604177 0.091286
vn 0.984287 0.019433 -0.175503
vn 0.819218 -0.567648 0.081593
vn 0.591424 -0.649936 -0.477285
vn 0.529072 -0.031084 -0.848008
vn 0.819218 -0.567648 0.081593
vn -0.741436 -0.576527 0.343351
vn -0.717637 -0.643531 -0.266203
vn 0.591424 -0.649936 -0.477285
vn -0.741436 -0.576527 0.343351
vn -0.989219 0.017940 0.145341
vn -0.786066 -0.028221 -0.617498
vn -0.717637 -0.643531 -0.266203
vn -0.989838 0.001242 0.142193
vn -0.884974 0.010211 -0.465528
vn -0.786066 -0.028221 -0.617498
vn -0.989219 0.017940 0.145341
vn -0.718299 0.610361 0.333925
vn 0.791604 0.604177 0.091286
vn 0.492215 0.474818 -0.729571
vn -0.716232 0.463533 -0.521679
vn 0.791604 0.604177 0.091286
vn 0.986226 -0.001787 -0.165395
vn 0.631061 -0.160279 -0.758994
vn 0.492215 0.474818 -0.729571
vn 0.680079 0.010519 -0.733063
vn -0.884974 0.010211 -0.465528
vn -0.849601 -0.155587 -0.503955
vn 0.631061 -0.160279 -0.758994
vn -0.747102 0.660315 0.076305
vn -0.750868 0.561957 0.346991
vn -0.990160 -0.002252 0.139923
vn -0.999599 -0.024568 0.014098
vn 0.954160 -0.024785 -0.298270
vn 0.955857 -0.056779 -0.288295
vn 0.983008 -0.014073 -0.183023
vn 0.984648 -0.002254 -0.174536
vn -0.750868 0.561957 0.346991
vn -0.718299 0.610361 0.333925
vn -0.988823 -0.001786 0.149087
vn -0.990160 -0.002252 0.139923
vn 0.984648 -0.002254 -0.174536
vn 0.983008 -0.014073 -0.183023
vn 0.985048 0.001243 -0.172273
vn 0.986226 -0.001787 -0.165395
vn -0.718299 0.610361 0.333925
vn -0.716232 0.463533 -0.521679
vn -0.849601 -0.155587 -0.503955
vn -0.988823 -0.001786 0.149087
vn 0.986226 -0.001787 -0.165395
vn 0.985048 0.001243 -0.172273
vn 0.680079 0.010519 -0.733063
vn 0.631061 -0.160279 -0.758994
vn -0.999599 -0.024568 0.014098
vn -0.990160 -0.002252 0.139923
vn -0.991234 -0.014050 0.131369
vn -0.998126 -0.056317 0.023937
vn -0.990160 -0.002252 0.139923
vn -0.988823 -0.001786 0.149087
vn -0.989838 0.001242 0.142193
vn -0.991234 -0.014050 0.131369
vn -0.988823 -0.001786 0.149087
vn -0.849601 -0.155587 -0.503955
vn -0.884974 0.010211 -0.465528
vn -0.989838 0.001242 0.142193
vn 0.529072 -0.031084 -0.848008
vn -0.786066 -0.028221 -0.617498
vn -0.884974 0.010211 -0.465528
vn 0.680079 0.010519 -0.733063
vn 0.955857 -0.056779 -0.288295
vn 0.940646 -0.110897 -0.320761
vn 0.983099 -0.009019 -0.182850
vn 0.983008 -0.014073 -0.183023
vn 0.983099 -0.009019 -0.182850
vn 0.984287 0.019433 -0.175503
vn 0.985048 0.001243 -0.172273
vn 0.983008 -0.014073 -0.183023
vn 0.985048 0.001243 -0.172273
vn 0.984287 0.019433 -0.175503
vn 0.529072 -0.031084 -0.848008
vn 0.680079 0.010519 -0.733063
s off
g polySurface2 TropicalFish15
usemtl ___Default
f 1/1/1 2/2/2 3/3/3 4/4/4
f 5/5/5 6/6/6 7/7/7 8/8/8
f 10/9/9 9/10/10 17/11/11 18/12/12
f 9/10/13 11/13/14 19/14/15 17/11/16
f 11/13/17 12/15/18 20/16/19 19/14/20
f 13/17/21 21/18/22 20/16/23 12/15/24
f 15/19/25 14/20/26 22/21/27 23/22/28
f 14/20/29 16/23/30 24/24/31 22/21/32
f 18/12/33 17/11/34 25/25/35 26/26/36
f 17/11/37 19/14/38 27/27/39 25/25/40
f 19/14/41 20/16/42 28/28/43 27/27/44
f 20/16/45 21/18/46 29/29/47 28/28/48
f 23/22/49 22/21/50 30/30/51 31/31/52
f 22/21/53 24/24/54 32/32/55 30/30/56
f 26/26/57 25/25/58 6/6/59 5/5/60
f 25/25/61 27/27/62 7/7/63 6/6/64
f 27/27/65 28/28/66 8/8/67 7/7/68
f 29/29/69 33/33/70 8/8/71 28/28/72
f 31/31/73 30/30/74 4/4/75 3/3/76
f 30/30/77 32/32/78 1/1/79 4/4/80
f 34/34/81 33/33/82 2/2/83 1/1/84
f 15/19/85 23/22/86 37/35/87 35/36/88
f 16/23/89 36/37/90 38/38/91 24/24/92
f 23/22/93 31/31/94 39/39/95 37/35/96
f 24/24/97 38/38/98 40/40/99 32/32/100
f 31/31/101 3/3/102 2/2/103 39/39/104
f 32/32/105 40/40/106 34/34/107 1/1/108
f 35/36/109 37/35/110 21/18/111 13/17/112
f 37/35/113 39/39/114 29/29/115 21/18/116
f 39/39/117 2/2/118 33/33/119 29/29/120
f 5/5/121 8/8/122 33/33/123 34/34/124
f 36/37/125 10/9/126 18/12/127 38/38/128
f 18/12/129 26/26/130 40/40/131 38/38/132
f 40/40/133 26/26/134 5/5/135 34/34/136
