# This file uses centimeters as units for non-parametric coordinates.

mtllib estructura.mtl
g default
v -0.394418 0.033947 0.571923
v 0.394418 0.033947 0.571923
v -0.394418 0.628993 0.571923
v 0.394418 0.628993 0.571923
v -0.394418 0.628993 -0.225896
v 0.394418 0.628993 -0.225896
v -0.394418 0.033947 -0.225896
v 0.394418 0.033947 -0.225896
vt 0.375000 0.000000
vt 0.625000 0.000000
vt 0.375000 0.250000
vt 0.625000 0.250000
vt 0.375000 0.500000
vt 0.625000 0.500000
vt 0.375000 0.750000
vt 0.625000 0.750000
vt 0.375000 1.000000
vt 0.625000 1.000000
vt 0.875000 0.000000
vt 0.875000 0.250000
vt 0.125000 0.000000
vt 0.125000 0.250000
vn 0.000000 0.000000 1.000000
vn 0.000000 0.000000 1.000000
vn 0.000000 0.000000 1.000000
vn 0.000000 0.000000 1.000000
vn 0.000000 1.000000 0.000000
vn 0.000000 1.000000 0.000000
vn 0.000000 1.000000 0.000000
vn 0.000000 1.000000 0.000000
vn 0.000000 0.000000 -1.000000
vn 0.000000 0.000000 -1.000000
vn 0.000000 0.000000 -1.000000
vn 0.000000 0.000000 -1.000000
vn 0.000000 -1.000000 0.000000
vn 0.000000 -1.000000 0.000000
vn 0.000000 -1.000000 0.000000
vn 0.000000 -1.000000 0.000000
vn 1.000000 0.000000 0.000000
vn 1.000000 0.000000 0.000000
vn 1.000000 0.000000 0.000000
vn 1.000000 0.000000 0.000000
vn -1.000000 0.000000 0.000000
vn -1.000000 0.000000 0.000000
vn -1.000000 0.000000 0.000000
vn -1.000000 0.000000 0.000000
s off
g pCube2
usemtl lambert17SG
f 1/1/1 2/2/2 4/4/3 3/3/4
f 3/3/5 4/4/6 6/6/7 5/5/8
f 5/5/9 6/6/10 8/8/11 7/7/12
f 7/7/13 8/8/14 2/10/15 1/9/16
f 2/2/17 8/11/18 6/12/19 4/4/20
f 7/13/21 1/1/22 3/3/23 5/14/24
g default
v 0.000000 0.440066 -1.175315
v 0.596872 0.748611 -0.871559
v -0.227985 0.939303 -0.871559
v -0.737775 0.440066 -0.871559
v -0.227985 -0.059171 -0.871559
v 0.596872 0.131521 -0.871559
v 0.737775 0.440066 -0.380073
v 0.227985 0.939303 -0.380073
v -0.596873 0.748611 -0.380073
v -0.596872 0.131521 -0.380073
v 0.227985 -0.059171 -0.380073
v 0.000000 0.440066 -0.076317
vt 1.000000 0.500000
vt 0.838104 0.676208
vt 0.088104 0.823792
vt 0.176208 0.500000
vt 0.088104 0.176208
vt 0.838104 0.323792
vt 0.676208 0.500000
vt 0.588104 0.823792
vt 0.338104 0.676208
vt 0.338104 0.323792
vt 0.588104 0.176208
vt 0.500000 0.500000
vt 1.088104 0.823792
vt 1.176208 0.500000
vt 1.088104 0.176208
vn 0.128944 0.557760 -0.819925
vn 0.128944 0.557760 -0.819926
vn 0.128944 0.557760 -0.819925
vn -0.354842 0.362343 -0.861856
vn -0.354842 0.362343 -0.861856
vn -0.354842 0.362343 -0.861856
vn -0.354842 -0.362343 -0.861856
vn -0.354842 -0.362343 -0.861856
vn -0.354842 -0.362343 -0.861856
vn 0.128943 -0.557760 -0.819925
vn 0.128943 -0.557760 -0.819925
vn 0.128943 -0.557760 -0.819925
vn 0.453557 -0.000000 -0.891228
vn 0.453557 -0.000000 -0.891228
vn 0.453557 -0.000000 -0.891228
vn 0.220478 0.953704 -0.204546
vn 0.220478 0.953704 -0.204546
vn 0.220478 0.953704 -0.204546
vn -0.679111 0.693466 -0.240652
vn -0.679111 0.693466 -0.240652
vn -0.679111 0.693466 -0.240652
vn -0.679111 -0.693466 -0.240652
vn -0.679111 -0.693466 -0.240652
vn -0.679111 -0.693466 -0.240652
vn 0.220478 -0.953704 -0.204546
vn 0.220478 -0.953704 -0.204546
vn 0.220478 -0.953704 -0.204546
vn 0.961277 0.000000 -0.275585
vn 0.961277 0.000000 -0.275585
vn 0.961277 0.000000 -0.275585
vn 0.679111 0.693466 0.240652
vn 0.679111 0.693466 0.240652
vn 0.679111 0.693466 0.240652
vn -0.220478 0.953703 0.204546
vn -0.220478 0.953703 0.204546
vn -0.220478 0.953703 0.204546
vn -0.961277 0.000000 0.275585
vn -0.961277 0.000000 0.275585
vn -0.961277 0.000000 0.275585
vn -0.220478 -0.953704 0.204546
vn -0.220478 -0.953704 0.204546
vn -0.220478 -0.953704 0.204546
vn 0.679111 -0.693466 0.240652
vn 0.679111 -0.693466 0.240652
vn 0.679111 -0.693466 0.240652
vn 0.354842 0.362343 0.861856
vn 0.354842 0.362343 0.861856
vn 0.354842 0.362343 0.861856
vn -0.128944 0.557760 0.819925
vn -0.128944 0.557760 0.819925
vn -0.128944 0.557760 0.819925
vn -0.453556 -0.000000 0.891228
vn -0.453556 -0.000000 0.891228
vn -0.453556 -0.000000 0.891228
vn -0.128943 -0.557760 0.819925
vn -0.128943 -0.557760 0.819925
vn -0.128943 -0.557760 0.819925
vn 0.354842 -0.362343 0.861856
vn 0.354842 -0.362343 0.861856
vn 0.354842 -0.362343 0.861856
s off
g pPlatonic1
usemtl lambert17SG
f 9/15/25 11/27/26 10/16/27
f 9/15/28 12/28/29 11/27/30
f 9/15/31 13/29/32 12/28/33
f 9/15/34 14/20/35 13/29/36
f 9/15/37 10/16/38 14/20/39
f 10/16/40 11/27/41 16/22/42
f 11/17/43 12/18/44 17/23/45
f 12/18/46 13/19/47 18/24/48
f 13/29/49 14/20/50 19/25/51
f 14/20/52 10/16/53 15/21/54
f 10/16/55 16/22/56 15/21/57
f 11/17/58 17/23/59 16/22/60
f 12/18/61 18/24/62 17/23/63
f 13/19/64 19/25/65 18/24/66
f 14/20/67 15/21/68 19/25/69
f 15/21/70 16/22/71 20/26/72
f 16/22/73 17/23/74 20/26/75
f 17/23/76 18/24/77 20/26/78
f 18/24/79 19/25/80 20/26/81
f 19/25/82 15/21/83 20/26/84
g default
v -0.075303 0.631574 0.580868
v -0.075293 0.632291 0.549985
v -0.081564 0.648732 0.580868
v -0.070862 0.644775 0.549985
v -0.217413 1.030007 -0.902347
v 0.027261 0.897685 -0.795127
v -0.075304 0.615015 -0.902347
v -0.075293 0.618264 -0.795127
v -0.217413 1.030007 -0.902347
v 0.027261 0.897685 -0.795127
v -0.075293 0.618264 -0.795127
v -0.075304 0.615015 -0.902347
v -0.217413 1.030007 -0.902347
v 0.027261 0.897685 -0.795127
v -0.075293 0.618264 -0.795127
v -0.075304 0.615015 -0.902347
v -0.217413 1.030007 -0.902347
v 0.027261 0.897685 -0.795127
v -0.075293 0.618264 -0.795127
v -0.075304 0.615015 -0.902347
v -0.075293 0.618264 -0.795127
v -0.075293 0.632291 0.549985
v 0.027261 0.897685 -0.795127
v -0.070862 0.644775 0.549985
v -0.075293 0.618264 -0.795127
v -0.075293 0.632291 0.549985
v 0.027261 0.897685 -0.795127
v -0.070862 0.644775 0.549985
v -0.075293 0.618264 -0.795127
v -0.075293 0.632291 0.549985
v 0.027261 0.897685 -0.795127
v -0.070862 0.644775 0.549985
v -0.075293 0.618264 -0.795127
v -0.075293 0.632291 0.549985
v 0.027261 0.897685 -0.795127
v -0.070862 0.644775 0.549985
v -0.075293 0.618264 -0.795127
v -0.075293 0.632291 0.549985
v 0.027261 0.897685 -0.795127
v -0.070862 0.644775 0.549985
v -0.075303 0.631574 0.580868
v -0.075293 0.632291 0.549985
v -0.070862 0.644775 0.549985
v -0.081564 0.648732 0.580868
v -0.075303 0.631574 0.580868
v -0.075293 0.632291 0.549985
v -0.070862 0.644775 0.549985
v -0.081564 0.648732 0.580868
v -0.217413 1.030007 -0.902347
v 0.027261 0.897685 -0.795127
v -0.075293 0.618264 -0.795127
v -0.075304 0.615015 -0.902347
v -0.217413 1.030007 -0.902347
v 0.027261 0.897685 -0.795127
v -0.075293 0.618264 -0.795127
v -0.075304 0.615015 -0.902347
v -0.075304 0.615015 -0.902347
v -0.075293 0.618264 -0.795127
v -0.075293 0.632291 0.549985
v -0.075303 0.631574 0.580868
vt 0.375000 0.000000
vt 0.625000 0.000000
vt 0.375000 0.250000
vt 0.625000 0.250000
vt 0.375000 0.500000
vt 0.625000 0.500000
vt 0.375000 0.750000
vt 0.625000 0.750000
vt 0.375000 1.000000
vt 0.625000 1.000000
vt 0.875000 0.000000
vt 0.875000 0.250000
vt 0.125000 0.000000
vt 0.125000 0.250000
vt 0.375000 0.500000
vt 0.625000 0.500000
vt 0.625000 0.750000
vt 0.375000 0.750000
vt 0.375000 0.500000
vt 0.625000 0.500000
vt 0.625000 0.750000
vt 0.375000 0.750000
vt 0.375000 0.500000
vt 0.625000 0.500000
vt 0.625000 0.750000
vt 0.375000 0.750000
vt 0.625000 0.000000
vt 0.875000 0.000000
vt 0.875000 0.250000
vt 0.625000 0.250000
vt 0.625000 0.000000
vt 0.875000 0.000000
vt 0.875000 0.250000
vt 0.625000 0.250000
vt 0.625000 0.000000
vt 0.875000 0.000000
vt 0.875000 0.250000
vt 0.625000 0.250000
vt 0.625000 0.000000
vt 0.875000 0.000000
vt 0.875000 0.250000
vt 0.625000 0.250000
vt 0.625000 0.000000
vt 0.875000 0.000000
vt 0.875000 0.250000
vt 0.625000 0.250000
vt 0.375000 0.000000
vt 0.625000 0.000000
vt 0.625000 0.250000
vt 0.375000 0.250000
vt 0.375000 0.000000
vt 0.625000 0.000000
vt 0.625000 0.250000
vt 0.375000 0.250000
vt 0.375000 0.500000
vt 0.625000 0.500000
vt 0.625000 0.750000
vt 0.375000 0.750000
vt 0.375000 0.500000
vt 0.625000 0.500000
vt 0.625000 0.750000
vt 0.375000 0.750000
vt 0.375000 0.750000
vt 0.625000 0.750000
vt 0.625000 1.000000
vt 0.375000 1.000000
vn 0.984005 0.060727 0.167470
vn 0.984005 0.060727 0.167470
vn 0.984005 0.060727 0.167470
vn 0.984005 0.060727 0.167470
vn 0.416204 0.888410 0.193653
vn 0.416204 0.888410 0.193653
vn 0.416204 0.888410 0.193653
vn 0.416204 0.888410 0.193653
vn 0.669928 0.038160 -0.741445
vn 0.669928 0.038160 -0.741445
vn 0.669928 0.038160 -0.741445
vn 0.669927 0.038160 -0.741445
vn 0.999979 -0.006449 0.000070
vn 0.999979 -0.006449 0.000070
vn 0.999979 -0.006449 0.000070
vn 0.999979 -0.006449 0.000070
vn 0.938918 -0.344121 0.003689
vn 0.938918 -0.344121 0.003689
vn 0.938918 -0.344121 0.003689
vn 0.938918 -0.344121 0.003689
vn -0.945804 -0.324721 0.003390
vn -0.945804 -0.324721 0.003390
vn -0.945804 -0.324721 0.003390
vn -0.945804 -0.324721 0.003390
vn 0.000000 0.000000 0.000000
vn 0.000000 0.000000 0.000000
vn 0.000000 0.000000 0.000000
vn 0.000000 0.000000 0.000000
vn 0.000000 0.000000 0.000000
vn 0.000000 0.000000 0.000000
vn 0.000000 0.000000 0.000000
vn 0.000000 0.000000 0.000000
vn 0.000000 0.000000 0.000000
vn 0.000000 0.000000 0.000000
vn 0.000000 0.000000 0.000000
vn 0.000000 0.000000 0.000000
vn 0.000000 0.000000 0.000000
vn 0.000000 0.000000 0.000000
vn 0.000000 0.000000 0.000000
vn 0.000000 0.000000 0.000000
vn 0.000000 0.000000 0.000000
vn 0.000000 0.000000 0.000000
vn 0.000000 0.000000 0.000000
vn 0.000000 0.000000 0.000000
vn 0.000000 0.000000 0.000000
vn 0.000000 0.000000 0.000000
vn 0.000000 0.000000 0.000000
vn 0.000000 0.000000 0.000000
vn 0.000000 0.000000 0.000000
vn 0.000000 0.000000 0.000000
vn 0.000000 0.000000 0.000000
vn 0.000000 0.000000 0.000000
vn 0.000000 0.000000 0.000000
vn 0.000000 0.000000 0.000000
vn 0.000000 0.000000 0.000000
vn 0.000000 0.000000 0.000000
vn 0.000000 0.000000 0.000000
vn 0.000000 0.000000 0.000000
vn 0.000000 0.000000 0.000000
vn 0.000000 0.000000 0.000000
vn 0.000000 0.000000 0.000000
vn 0.000000 0.000000 0.000000
vn 0.000000 0.000000 0.000000
vn 0.000000 0.000000 0.000000
vn 0.000000 0.000000 0.000000
vn 0.000000 0.000000 0.000000
vn 0.000000 0.000000 0.000000
vn 0.000000 0.000000 0.000000
vn 0.000000 0.000000 0.000000
vn 0.000000 0.000000 0.000000
vn 0.000000 0.000000 0.000000
vn 0.000000 0.000000 0.000000
vn 0.000000 0.000000 0.000000
vn 0.000000 0.000000 0.000000
vn 0.000000 0.000000 0.000000
vn 0.000000 0.000000 0.000000
vn 0.000000 0.000000 0.000000
vn 0.000000 0.000000 0.000000
vn 0.000000 0.000000 0.000000
vn 0.000000 0.000000 0.000000
vn 0.000000 0.000000 0.000000
vn 0.000000 0.000000 0.000000
vn 0.000000 0.000000 0.000000
vn 0.000000 0.000000 0.000000
vn 0.000000 0.000000 0.000000
vn 0.000000 0.000000 0.000000
vn 0.000000 0.000000 0.000000
vn 0.000000 0.000000 0.000000
vn 0.000000 0.000000 0.000000
vn 0.000000 0.000000 0.000000
vn 0.000000 0.000000 0.000000
vn 0.000000 0.000000 0.000000
vn 0.000000 0.000000 0.000000
vn 0.000000 0.000000 0.000000
vn 0.000000 0.000000 0.000000
vn 0.000000 0.000000 0.000000
vn 0.000000 0.000000 0.000000
vn 0.000000 0.000000 0.000000
vn 0.000000 0.000000 0.000000
vn 0.000000 0.000000 0.000000
vn 0.000000 0.000000 0.000000
vn 0.000000 0.000000 0.000000
vn 0.000000 0.000000 0.000000
vn 0.000000 0.000000 0.000000
vn 0.000000 0.000000 0.000000
vn 0.000000 0.000000 0.000000
vn 0.000000 0.000000 0.000000
vn 0.000000 0.000000 0.000000
vn 0.000000 0.000000 0.000000
vn 0.000000 0.000000 0.000000
vn 0.000000 0.000000 0.000000
vn 0.000000 0.000000 0.000000
vn 0.000000 0.000000 0.000000
vn 0.000000 0.000000 0.000000
vn 0.000000 0.000000 0.000000
vn 0.000000 0.000000 0.000000
vn 0.000000 0.000000 0.000000
vn 0.000000 0.000000 0.000000
vn 0.000000 0.000000 0.000000
vn 0.000000 0.000000 0.000000
vn 0.000000 0.000000 0.000000
vn 0.000000 0.000000 0.000000
vn 0.000000 0.000000 0.000000
vn 0.000000 0.000000 0.000000
vn 0.000000 0.000000 0.000000
vn 0.000000 0.000000 0.000000
vn 0.000000 0.000000 0.000000
vn 0.000000 0.000000 0.000000
vn 0.000000 0.000000 0.000000
vn 0.000000 0.000000 0.000000
vn 0.000000 0.000000 0.000000
vn 0.000000 0.000000 0.000000
vn 0.000000 0.000000 0.000000
vn 0.000000 0.000000 0.000000
vn 0.000000 0.000000 0.000000
vn 0.000000 0.000000 0.000000
vn 0.000000 0.000000 0.000000
vn 0.000000 0.000000 0.000000
vn 0.000000 0.000000 0.000000
vn 0.000000 0.000000 0.000000
vn 0.000000 0.000000 0.000000
vn 0.000000 0.000000 0.000000
vn 0.000000 0.000000 0.000000
vn 0.000000 0.000000 0.000000
vn 0.000000 0.000000 0.000000
vn 0.000000 0.000000 0.000000
vn 0.000000 0.000000 0.000000
vn 0.000000 0.000000 0.000000
vn 0.000000 0.000000 0.000000
vn 0.000000 0.000000 0.000000
vn 0.000000 0.000000 0.000000
vn 0.000000 0.000000 0.000000
vn 0.000000 0.000000 0.000000
vn 0.000000 0.000000 0.000000
vn 0.000000 0.000000 0.000000
vn 0.000000 0.000000 0.000000
vn 0.000000 0.000000 0.000000
vn 0.000000 0.000000 0.000000
vn 0.000000 0.000000 0.000000
vn 0.000000 0.000000 0.000000
vn 0.000000 0.000000 0.000000
vn 0.000000 0.000000 0.000000
vn 0.000000 0.000000 0.000000
vn 0.000000 0.000000 0.000000
vn 0.000000 0.000000 0.000000
vn 0.000000 0.000000 0.000000
vn 0.000000 0.000000 0.000000
vn 0.000000 0.000000 0.000000
vn 0.000000 0.000000 0.000000
vn 0.000000 0.000000 0.000000
vn 0.000000 0.000000 0.000000
vn 0.000000 0.000000 0.000000
vn 0.000000 0.000000 0.000000
vn 0.000000 0.000000 0.000000
vn 0.000000 0.000000 0.000000
vn 0.000000 0.000000 0.000000
vn 0.000000 0.000000 0.000000
vn 0.000000 0.000000 0.000000
vn 0.000000 0.000000 0.000000
vn 0.000000 0.000000 0.000000
vn 0.000000 0.000000 0.000000
vn 0.000000 0.000000 0.000000
vn 0.000000 0.000000 0.000000
vn 0.000000 0.000000 0.000000
vn 0.000000 0.000000 0.000000
vn 0.000000 0.000000 0.000000
vn 0.000000 0.000000 0.000000
vn 0.000000 0.000000 0.000000
vn 0.000000 0.000000 0.000000
vn 0.000000 0.000000 0.000000
vn 0.000000 0.000000 0.000000
vn 0.000000 0.000000 0.000000
vn 0.000000 0.000000 0.000000
vn 0.000000 0.000000 0.000000
vn 0.000000 0.000000 0.000000
vn 0.000000 0.000000 0.000000
vn 0.000000 0.000000 0.000000
vn 0.000000 0.000000 0.000000
vn 0.000000 0.000000 0.000000
vn 0.000000 0.000000 0.000000
vn 0.000000 0.000000 0.000000
vn 0.000000 0.000000 0.000000
vn 0.000000 0.000000 0.000000
vn 0.000000 0.000000 0.000000
vn 0.000000 0.000000 0.000000
vn 0.000000 0.000000 0.000000
vn 0.000000 0.000000 0.000000
vn 0.000000 0.000000 0.000000
vn 0.000000 0.000000 0.000000
vn 0.000000 0.000000 0.000000
vn 0.000000 0.000000 0.000000
vn 0.000000 0.000000 0.000000
vn 0.000000 0.000000 0.000000
vn 0.000000 0.000000 0.000000
vn 0.000000 0.000000 0.000000
vn 0.000000 0.000000 0.000000
vn 0.000000 0.000000 0.000000
vn 0.000000 0.000000 0.000000
vn 0.000000 0.000000 0.000000
vn 0.000000 0.000000 0.000000
vn 0.000000 0.000000 0.000000
vn 0.000000 0.000000 0.000000
vn 0.000000 0.000000 0.000000
vn 0.000000 0.000000 0.000000
vn 0.000000 0.000000 0.000000
vn 0.000000 0.000000 0.000000
vn 0.000000 0.000000 0.000000
vn 0.000000 0.000000 0.000000
vn 0.000000 0.000000 0.000000
vn 0.000000 0.000000 0.000000
vn 0.000000 0.000000 0.000000
vn 0.000000 0.000000 0.000000
s off
g pCube1
usemtl lambert17SG
f 65/80/85 66/81/86 67/82/87 68/83/88
f 23/32/89 24/33/90 26/35/91 25/34/92
f 73/88/93 74/89/94 75/90/95 76/91/96
f 77/92/97 78/93/98 79/94/99 80/95/100
f 58/72/101 57/73/102 59/74/103 60/75/104
f 27/42/105 21/30/106 23/32/107 25/43/108
f 25/34/109 26/35/110 30/45/111 29/44/112
f 26/35/113 28/37/114 31/46/115 30/45/116
f 28/37/117 27/36/118 32/47/119 31/46/120
f 27/36/121 25/34/122 29/44/123 32/47/124
f 29/44/125 30/45/126 34/49/127 33/48/128
f 30/45/129 31/46/130 35/50/131 34/49/132
f 31/46/133 32/47/134 36/51/135 35/50/136
f 32/47/137 29/44/138 33/48/139 36/51/140
f 33/48/141 34/49/142 38/53/143 37/52/144
f 34/49/145 35/50/146 39/54/147 38/53/148
f 35/50/149 36/51/150 40/55/151 39/54/152
f 36/51/153 33/48/154 37/52/155 40/55/156
f 22/31/157 28/40/158 41/57/159 42/56/160
f 28/40/161 26/41/162 43/58/163 41/57/164
f 26/41/165 24/33/166 44/59/167 43/58/168
f 24/33/169 22/31/170 42/56/171 44/59/172
f 42/56/173 41/57/174 45/61/175 46/60/176
f 41/57/177 43/58/178 47/62/179 45/61/180
f 43/58/181 44/59/182 48/63/183 47/62/184
f 44/59/185 42/56/186 46/60/187 48/63/188
f 46/60/189 45/61/190 49/65/191 50/64/192
f 45/61/193 47/62/194 51/66/195 49/65/196
f 47/62/197 48/63/198 52/67/199 51/66/200
f 48/63/201 46/60/202 50/64/203 52/67/204
f 50/64/205 49/65/206 53/69/207 54/68/208
f 49/65/209 51/66/210 55/70/211 53/69/212
f 51/66/213 52/67/214 56/71/215 55/70/216
f 52/67/217 50/64/218 54/68/219 56/71/220
f 54/68/221 53/69/222 57/73/223 58/72/224
f 53/69/225 55/70/226 59/74/227 57/73/228
f 55/70/229 56/71/230 60/75/231 59/74/232
f 56/71/233 54/68/234 58/72/235 60/75/236
f 21/30/237 22/31/238 62/77/239 61/76/240
f 22/31/241 24/33/242 63/78/243 62/77/244
f 24/33/245 23/32/246 64/79/247 63/78/248
f 23/32/249 21/30/250 61/76/251 64/79/252
f 61/76/253 62/77/254 66/81/255 65/80/256
f 62/77/257 63/78/258 67/82/259 66/81/260
f 63/78/261 64/79/262 68/83/263 67/82/264
f 64/79/265 61/76/266 65/80/267 68/83/268
f 37/52/269 38/53/270 70/85/271 69/84/272
f 38/53/273 39/54/274 71/86/275 70/85/276
f 39/54/277 40/55/278 72/87/279 71/86/280
f 40/55/281 37/52/282 69/84/283 72/87/284
f 69/84/285 70/85/286 74/89/287 73/88/288
f 70/85/289 71/86/290 75/90/291 74/89/292
f 71/86/293 72/87/294 76/91/295 75/90/296
f 72/87/297 69/84/298 73/88/299 76/91/300
f 27/36/301 28/37/302 78/93/303 77/92/304
f 28/37/305 22/39/306 79/94/307 78/93/308
f 22/39/309 21/38/310 80/95/311 79/94/312
f 21/38/313 27/36/314 77/92/315 80/95/316
